<svg width="79" height="79" viewBox="0 0 79 79" fill="none" xmlns="http://www.w3.org/2000/svg">
<circle cx="39.5" cy="39.5" r="39.5" fill="#FFF7E9"/>
<path d="M6.8183 23.3915C11.1101 14.651 18.5489 8.105 27.7641 4.95911C36.9795 1.8136 46.8682 2.44476 55.6087 6.7366C64.3492 11.0284 70.8952 18.4672 74.0411 27.6824C77.1866 36.8978 76.5555 46.7865 72.2636 55.527C70.879 58.3468 69.1412 60.9736 67.0984 63.3343C66.7044 63.7897 66.1364 64.0577 65.5344 64.0721C64.9324 64.0866 64.3522 63.8462 63.9368 63.4102C63.578 63.0337 63.1567 62.7253 62.6847 62.4935C60.4976 61.4196 57.8445 62.3253 56.7706 64.5123C56.6793 64.6982 56.5992 64.8963 56.5326 65.1013C56.34 65.6932 55.9002 66.1706 55.327 66.411C54.7538 66.6513 54.1044 66.63 53.5479 66.3526C53.5243 66.3409 53.5014 66.3288 53.4785 66.3166C51.2954 65.259 48.656 66.1659 47.5856 68.3459C47.4943 68.5317 47.4142 68.7299 47.3476 68.9348C47.1548 69.5269 46.7151 70.0043 46.142 70.2445C45.5689 70.4848 44.9194 70.4635 44.3629 70.1862C44.3395 70.1745 44.3166 70.1625 44.2938 70.1503C42.1107 69.0925 39.4711 69.9993 38.4006 72.1794C38.1561 72.6773 38.0092 73.2094 37.9636 73.7611C37.9161 74.3353 37.639 74.8658 37.1946 75.2325C36.7504 75.5993 36.177 75.771 35.6043 75.7089C31.3895 75.2517 27.3082 74.065 23.4732 72.1819C14.7327 67.8901 8.18669 60.4513 5.0408 51.2361C1.8953 42.0208 2.52645 32.132 6.8183 23.3915Z" fill="#774E2E"/>
<path d="M6.93199 34.5621C6.69512 34.3862 6.57669 34.1764 6.57669 33.9327C6.57669 33.838 6.59361 33.7466 6.62745 33.6586C6.66129 33.5639 6.7222 33.4691 6.81018 33.3744L7.10457 33.0394C7.28053 32.8228 7.48694 32.7146 7.72381 32.7146C7.80503 32.7146 7.89301 32.7315 7.98775 32.7653C8.07573 32.7924 8.1671 32.8431 8.26185 32.9176C9.20932 33.6282 10.1196 34.3659 10.9926 35.1306C11.8724 35.8886 12.7218 36.7176 13.5406 37.6177C13.6692 37.7396 13.7809 37.8005 13.8756 37.8005C14.0584 37.8005 14.17 37.6787 14.2107 37.435L15.104 33.8718C15.2055 33.4725 15.4119 33.2729 15.7232 33.2729C15.7909 33.2729 15.862 33.283 15.9364 33.3033C16.0176 33.3236 16.0988 33.3609 16.18 33.415L16.5354 33.6079C16.867 33.7906 17.0328 34.0376 17.0328 34.349C17.0328 34.4505 17.0125 34.5621 16.9719 34.684C16.7418 35.5299 16.5083 36.4232 16.2714 37.364C16.0413 38.2979 15.8044 39.2589 15.5608 40.247C15.3172 41.2283 15.0668 42.2232 14.8096 43.2316C14.5524 44.2399 14.2885 45.2382 14.0178 46.2263C13.9095 46.6391 13.676 46.8455 13.3173 46.8455C13.2158 46.8455 13.1041 46.8252 12.9823 46.7846L12.6473 46.6831C12.4375 46.6289 12.2852 46.541 12.1905 46.4191C12.0957 46.2973 12.0484 46.1484 12.0484 45.9725C12.0484 45.9319 12.0484 45.8845 12.0484 45.8303C12.0551 45.7762 12.0687 45.7221 12.089 45.6679C12.3055 44.8626 12.5187 44.064 12.7285 43.2722C12.9383 42.4803 13.1414 41.6851 13.3376 40.8865C13.3512 40.8392 13.3613 40.7986 13.3681 40.7647C13.3748 40.7309 13.3782 40.6937 13.3782 40.6531C13.3782 40.5718 13.3579 40.494 13.3173 40.4196C13.2835 40.3451 13.2361 40.2707 13.1752 40.1962C12.2209 39.1405 11.2227 38.149 10.1805 37.2218C9.14503 36.2947 8.0622 35.4081 6.93199 34.5621ZM19.4026 34.8971C19.4432 34.6603 19.5582 34.4843 19.7477 34.3693C19.9372 34.2474 20.2519 34.1865 20.6918 34.1865C20.9287 34.1865 21.1114 34.2474 21.24 34.3693C21.3753 34.4911 21.443 34.6603 21.443 34.8768C21.443 34.9107 21.4396 34.9411 21.4329 34.9682C21.4261 34.9953 21.4227 35.0257 21.4227 35.0596C21.3483 35.4995 21.2874 35.9563 21.24 36.43C21.1926 36.9038 21.1689 37.3843 21.1689 37.8715C21.1689 38.5009 21.2231 39.0965 21.3313 39.6582C21.4464 40.2132 21.646 40.7004 21.9303 41.12C22.2213 41.5329 22.6138 41.8611 23.1079 42.1047C23.6087 42.3416 24.2448 42.46 25.0164 42.46C25.4495 42.46 25.8319 42.3822 26.1635 42.2265C26.4951 42.0709 26.7692 41.8577 26.9858 41.587C27.2091 41.3095 27.3749 40.9847 27.4832 40.6125C27.5982 40.2402 27.6558 39.8376 27.6558 39.4044C27.6558 38.9713 27.6084 38.5449 27.5136 38.1253C27.4257 37.7057 27.3038 37.2929 27.1482 36.8868C26.9993 36.474 26.8233 36.0679 26.6203 35.6687C26.424 35.2694 26.2142 34.8667 25.9909 34.4606C25.8962 34.2779 25.8488 34.1121 25.8488 33.9632C25.8488 33.6993 25.9875 33.4759 26.265 33.2932L26.6812 33.0191C26.8639 32.8973 27.0365 32.8364 27.1989 32.8364C27.4493 32.8364 27.6591 32.9886 27.8283 33.2932C28.0855 33.7466 28.3325 34.2068 28.5694 34.6738C28.8063 35.134 29.0127 35.6077 29.1886 36.095C29.3714 36.5823 29.5135 37.0865 29.615 37.6076C29.7233 38.1219 29.7774 38.6532 29.7774 39.2014C29.7774 39.9661 29.6488 40.6632 29.3917 41.2926C29.1413 41.922 28.7826 42.4634 28.3156 42.9169C27.8486 43.3635 27.2869 43.7087 26.6305 43.9523C25.9808 44.2027 25.2566 44.3279 24.458 44.3279C23.5918 44.3279 22.8202 44.1756 22.1435 43.8711C21.4735 43.5733 20.9084 43.1605 20.4482 42.6326C19.988 42.098 19.6394 41.4686 19.4026 40.7444C19.1657 40.0135 19.0473 39.2217 19.0473 38.369C19.0473 37.7734 19.0811 37.1778 19.1488 36.5823C19.2232 35.98 19.3078 35.4182 19.4026 34.8971ZM41.7607 37.7193C41.6795 37.7193 41.6084 37.7836 41.5475 37.9121C41.2904 38.413 41.0163 38.8664 40.7253 39.2724C40.441 39.6785 40.1534 40.0237 39.8624 40.3079C39.5714 40.5921 39.2837 40.8121 38.9995 40.9678C38.7153 41.1166 38.4479 41.1911 38.1975 41.1911C37.9539 41.1911 37.7272 41.1403 37.5174 41.0388C37.3143 40.9305 37.091 40.7309 36.8474 40.4399C36.6105 40.1489 36.3364 39.7462 36.0251 39.2318C35.7206 38.7175 35.3449 38.0475 34.8983 37.2218C34.8238 37.0865 34.746 36.9884 34.6648 36.9274C34.5903 36.8598 34.5227 36.8259 34.4618 36.8259C34.3738 36.8259 34.2926 36.9207 34.2181 37.1102C34.1437 37.2929 34.0794 37.5535 34.0252 37.8918C33.9711 38.2235 33.9271 38.6261 33.8933 39.0999C33.8662 39.5668 33.8527 40.0846 33.8527 40.6531C33.8527 40.9914 33.8696 41.3298 33.9034 41.6682C33.944 42.0066 33.9643 42.3551 33.9643 42.7138C33.9643 42.8356 33.9305 42.9507 33.8628 43.059C33.7951 43.1605 33.7038 43.2485 33.5887 43.3229C33.4804 43.4041 33.3485 43.4684 33.1928 43.5158C33.0439 43.5632 32.8849 43.5869 32.7157 43.5869C32.3773 43.5869 32.1337 43.3838 31.9848 42.9778C31.8359 42.5717 31.7615 41.922 31.7615 41.0287C31.7615 39.8985 31.8224 38.8732 31.9442 37.9527C32.0728 37.0256 32.2521 36.2338 32.4822 35.5773C32.7191 34.9141 32.9966 34.4031 33.3146 34.0444C33.6395 33.6789 34.0016 33.4962 34.4009 33.4962C34.7528 33.4962 35.0878 33.6993 35.4059 34.1053C35.7307 34.5046 36.0792 35.1543 36.4515 36.0544C36.6004 36.4199 36.7594 36.7616 36.9286 37.0797C37.1045 37.3978 37.2771 37.6753 37.4463 37.9121C37.6223 38.1422 37.7915 38.325 37.9539 38.4603C38.1163 38.5889 38.2618 38.6532 38.3904 38.6532C38.519 38.6532 38.6408 38.6261 38.7559 38.572C38.8777 38.5111 39.013 38.3859 39.1619 38.1964C39.3176 38.0001 39.4969 37.7159 39.7 37.3437C39.9098 36.9714 40.1669 36.474 40.4715 35.8514C40.6339 35.5265 40.7794 35.2558 40.908 35.0393C41.0366 34.8227 41.1652 34.6501 41.2938 34.5215C41.4223 34.3862 41.5577 34.2914 41.6998 34.2373C41.8419 34.1764 42.001 34.1459 42.1769 34.1459C42.3867 34.1459 42.5931 34.2576 42.7962 34.4809C42.9992 34.7043 43.1955 35.002 43.385 35.3743C43.5812 35.7465 43.7707 36.1796 43.9535 36.6737C44.1362 37.1677 44.3121 37.6854 44.4813 38.2268C44.6573 38.7683 44.8265 39.3198 44.9889 39.8815C45.1581 40.4365 45.3205 40.9644 45.4762 41.4652C45.5168 41.6141 45.5439 41.719 45.5574 41.7799C45.5777 41.834 45.5879 41.9017 45.5879 41.9829C45.5879 42.098 45.5506 42.213 45.4762 42.3281C45.4085 42.4363 45.3171 42.5345 45.2021 42.6225C45.087 42.7104 44.9551 42.7815 44.8062 42.8356C44.6641 42.8898 44.5219 42.9169 44.3798 42.9169C44.1903 42.9169 44.0414 42.8965 43.9332 42.8559C43.8316 42.8086 43.7504 42.7274 43.6895 42.6123C43.6557 42.5514 43.5982 42.389 43.5169 42.125C43.4357 41.8611 43.3376 41.5498 43.2225 41.1911C43.1143 40.8256 42.9924 40.4399 42.8571 40.0338C42.7285 39.6278 42.5965 39.2555 42.4612 38.9171C42.3326 38.572 42.2074 38.2877 42.0856 38.0644C41.9638 37.8343 41.8555 37.7193 41.7607 37.7193ZM56.8199 37.7193C56.7387 37.7193 56.6677 37.7836 56.6067 37.9121C56.3496 38.413 56.0755 38.8664 55.7845 39.2724C55.5002 39.6785 55.2126 40.0237 54.9216 40.3079C54.6306 40.5921 54.343 40.8121 54.0587 40.9678C53.7745 41.1166 53.5071 41.1911 53.2567 41.1911C53.0131 41.1911 52.7864 41.1403 52.5766 41.0388C52.3736 40.9305 52.1502 40.7309 51.9066 40.4399C51.6697 40.1489 51.3956 39.7462 51.0843 39.2318C50.7798 38.7175 50.4042 38.0475 49.9575 37.2218C49.883 37.0865 49.8052 36.9884 49.724 36.9274C49.6496 36.8598 49.5819 36.8259 49.521 36.8259C49.433 36.8259 49.3518 36.9207 49.2773 37.1102C49.2029 37.2929 49.1386 37.5535 49.0845 37.8918C49.0303 38.2235 48.9863 38.6261 48.9525 39.0999C48.9254 39.5668 48.9119 40.0846 48.9119 40.6531C48.9119 40.9914 48.9288 41.3298 48.9626 41.6682C49.0032 42.0066 49.0235 42.3551 49.0235 42.7138C49.0235 42.8356 48.9897 42.9507 48.922 43.059C48.8543 43.1605 48.763 43.2485 48.6479 43.3229C48.5397 43.4041 48.4077 43.4684 48.252 43.5158C48.1031 43.5632 47.9441 43.5869 47.7749 43.5869C47.4365 43.5869 47.1929 43.3838 47.044 42.9778C46.8951 42.5717 46.8207 41.922 46.8207 41.0287C46.8207 39.8985 46.8816 38.8732 47.0034 37.9527C47.132 37.0256 47.3113 36.2338 47.5414 35.5773C47.7783 34.9141 48.0558 34.4031 48.3738 34.0444C48.6987 33.6789 49.0608 33.4962 49.4601 33.4962C49.812 33.4962 50.147 33.6993 50.4651 34.1053C50.7899 34.5046 51.1384 35.1543 51.5107 36.0544C51.6596 36.4199 51.8186 36.7616 51.9878 37.0797C52.1638 37.3978 52.3363 37.6753 52.5055 37.9121C52.6815 38.1422 52.8507 38.325 53.0131 38.4603C53.1755 38.5889 53.321 38.6532 53.4496 38.6532C53.5782 38.6532 53.7 38.6261 53.8151 38.572C53.9369 38.5111 54.0722 38.3859 54.2211 38.1964C54.3768 38.0001 54.5561 37.7159 54.7592 37.3437C54.969 36.9714 55.2261 36.474 55.5307 35.8514C55.6931 35.5265 55.8386 35.2558 55.9672 35.0393C56.0958 34.8227 56.2244 34.6501 56.353 34.5215C56.4815 34.3862 56.6169 34.2914 56.759 34.2373C56.9011 34.1764 57.0602 34.1459 57.2361 34.1459C57.4459 34.1459 57.6524 34.2576 57.8554 34.4809C58.0584 34.7043 58.2547 35.002 58.4442 35.3743C58.6404 35.7465 58.8299 36.1796 59.0127 36.6737C59.1954 37.1677 59.3713 37.6854 59.5405 38.2268C59.7165 38.7683 59.8857 39.3198 60.0481 39.8815C60.2173 40.4365 60.3797 40.9644 60.5354 41.4652C60.576 41.6141 60.6031 41.719 60.6166 41.7799C60.6369 41.834 60.6471 41.9017 60.6471 41.9829C60.6471 42.098 60.6098 42.213 60.5354 42.3281C60.4677 42.4363 60.3764 42.5345 60.2613 42.6225C60.1462 42.7104 60.0143 42.7815 59.8654 42.8356C59.7233 42.8898 59.5811 42.9169 59.439 42.9169C59.2495 42.9169 59.1006 42.8965 58.9924 42.8559C58.8908 42.8086 58.8096 42.7274 58.7487 42.6123C58.7149 42.5514 58.6574 42.389 58.5761 42.125C58.4949 41.8611 58.3968 41.5498 58.2817 41.1911C58.1735 40.8256 58.0516 40.4399 57.9163 40.0338C57.7877 39.6278 57.6557 39.2555 57.5204 38.9171C57.3918 38.572 57.2666 38.2877 57.1448 38.0644C57.023 37.8343 56.9147 37.7193 56.8199 37.7193ZM59.9409 34.5621C59.7041 34.3862 59.5856 34.1764 59.5856 33.9327C59.5856 33.838 59.6025 33.7466 59.6364 33.6586C59.6702 33.5639 59.7311 33.4691 59.8191 33.3744L60.1135 33.0394C60.2895 32.8228 60.4959 32.7146 60.7327 32.7146C60.814 32.7146 60.9019 32.7315 60.9967 32.7653C61.0847 32.7924 61.176 32.8431 61.2708 32.9176C62.2182 33.6282 63.1285 34.3659 64.0015 35.1306C64.8813 35.8886 65.7307 36.7176 66.5496 37.6177C66.6782 37.7396 66.7898 37.8005 66.8846 37.8005C67.0673 37.8005 67.179 37.6787 67.2196 37.435L68.1129 33.8718C68.2144 33.4725 68.4208 33.2729 68.7322 33.2729C68.7998 33.2729 68.8709 33.283 68.9453 33.3033C69.0266 33.3236 69.1078 33.3609 69.189 33.415L69.5443 33.6079C69.8759 33.7906 70.0417 34.0376 70.0417 34.349C70.0417 34.4505 70.0214 34.5621 69.9808 34.684C69.7507 35.5299 69.5172 36.4232 69.2803 37.364C69.0502 38.2979 68.8134 39.2589 68.5697 40.247C68.3261 41.2283 68.0757 42.2232 67.8185 43.2316C67.5613 44.2399 67.2974 45.2382 67.0267 46.2263C66.9184 46.6391 66.6849 46.8455 66.3262 46.8455C66.2247 46.8455 66.1131 46.8252 65.9912 46.7846L65.6562 46.6831C65.4464 46.6289 65.2942 46.541 65.1994 46.4191C65.1047 46.2973 65.0573 46.1484 65.0573 45.9725C65.0573 45.9319 65.0573 45.8845 65.0573 45.8303C65.0641 45.7762 65.0776 45.7221 65.0979 45.6679C65.3145 44.8626 65.5277 44.064 65.7375 43.2722C65.9473 42.4803 66.1503 41.6851 66.3465 40.8865C66.3601 40.8392 66.3702 40.7986 66.377 40.7647C66.3838 40.7309 66.3872 40.6937 66.3872 40.6531C66.3872 40.5718 66.3668 40.494 66.3262 40.4196C66.2924 40.3451 66.245 40.2707 66.1841 40.1962C65.2299 39.1405 64.2316 38.149 63.1894 37.2218C62.154 36.2947 61.0711 35.4081 59.9409 34.5621Z" fill="#FFF6E7"/>
<path d="M63.4232 18.0154C63.2441 17.2965 61.9307 16.7573 61.0948 17.1168C59.9008 17.596 59.3635 18.0154 59.7814 19.3932C59.9008 19.8725 60.4978 20.9508 60.7963 21.0107C61.2142 21.1904 62.2292 21.2503 62.5277 20.9508C63.4232 20.1121 63.5426 18.5545 63.4232 18.0154Z" fill="#DDA85F"/>
<path d="M60.8933 20.086C61.0036 20.4537 62.8136 19.8037 62.5981 19.1512C62.1796 18.0534 62.1696 17.8876 61.8211 17.9503C61.1731 18.1557 60.8319 19.7985 60.8933 20.086Z" fill="#F2CB7D"/>
<path d="M20.6214 23.0702C20.4423 22.3513 19.1289 21.8122 18.293 22.1716C17.099 22.6508 16.5617 23.0702 16.9796 24.448C17.099 24.9273 17.696 26.0056 17.9945 26.0655C18.4124 26.2452 19.4274 26.3051 19.7259 26.0056C20.6214 25.1669 20.7408 23.6093 20.6214 23.0702Z" fill="#DDA85F"/>
<path d="M18.0913 25.1407C18.2016 25.5084 20.0116 24.8584 19.7961 24.2059C19.3776 23.1081 19.3676 22.9424 19.0192 23.005C18.3711 23.2105 18.03 24.8532 18.0913 25.1407Z" fill="#F2CB7D"/>
<path d="M63.7409 55.8348C63.6356 55.4119 62.8629 55.0948 62.3713 55.3062C61.6689 55.5881 61.3528 55.8348 61.5986 56.6453C61.6689 56.9272 62.0201 57.5616 62.1957 57.5968C62.4415 57.7025 63.0385 57.7378 63.2141 57.5616C63.7409 57.0682 63.8112 56.152 63.7409 55.8348Z" fill="#DDA85F"/>
<path d="M62.2525 57.0527C62.3174 57.269 63.3821 56.8866 63.2554 56.5028C63.0092 55.857 63.0033 55.7595 62.7983 55.7964C62.4171 55.9172 62.2164 56.8836 62.2525 57.0527Z" fill="#F2CB7D"/>
<path d="M29.9259 9.96371C28.9123 10.2171 28.152 12.0754 28.6588 13.258C29.3346 14.9474 30.9395 15.2008 32.7134 14.2717C34.2338 13.5114 34.3183 10.8084 33.896 10.3016C32.6289 9.03454 30.6861 9.79477 29.9259 9.96371Z" fill="#DDA85F"/>
<path d="M29.8743 11.0571C29.3675 11.6484 28.9452 14.0135 30.2122 13.6757C32.4929 12.9999 34.0978 10.7192 33.0842 10.3814C31.8171 9.95901 30.4656 10.3814 29.8743 11.0571Z" fill="#F2CB7D"/>
<path d="M40.644 55.8622C39.835 56.0645 39.2282 57.5477 39.6327 58.4917C40.1721 59.8401 41.4531 60.0424 42.869 59.3007C44.0826 58.6939 44.15 56.5364 43.8129 56.1319C42.8015 55.1205 41.2508 55.7273 40.644 55.8622Z" fill="#DDA85F"/>
<path d="M40.6029 56.7347C40.1984 57.2067 39.8613 59.0945 40.8726 58.8248C42.693 58.2854 43.9741 56.465 43.165 56.1954C42.1537 55.8582 41.0749 56.1954 40.6029 56.7347Z" fill="#F2CB7D"/>
<path d="M48.6087 25.0027C48.405 24.1852 46.9113 23.572 45.9608 23.9808C44.6029 24.5258 43.9918 25.0027 44.4671 26.5697C44.6029 27.1147 45.2818 28.341 45.6213 28.4091C46.0966 28.6135 47.2508 28.6816 47.5903 28.341C48.6087 27.3872 48.7445 25.6159 48.6087 25.0027Z" fill="#DDA85F"/>
<path d="M46.8339 28.0279C47.4198 28.2543 48.2685 25.3814 47.21 25.0041C45.3766 24.4383 45.1498 24.2873 44.9044 24.7788C44.5649 25.7805 46.3991 27.8203 46.8339 28.0279Z" fill="#F2CB7D"/>
<path d="M22.9275 52.0699C22.7238 51.2523 21.2301 50.6392 20.2796 51.048C18.9216 51.593 18.3106 52.0699 18.7858 53.6368C18.9216 54.1819 19.6006 55.4082 19.9401 55.4763C20.4153 55.6807 21.5696 55.7488 21.9091 55.4082C22.9275 54.4544 23.0633 52.683 22.9275 52.0699Z" fill="#DDA85F"/>
<path d="M21.1524 55.0948C21.7383 55.3212 22.587 52.4483 21.5285 52.071C19.6951 51.5052 19.4683 51.3542 19.2229 51.8457C18.8834 52.8474 20.7176 54.8872 21.1524 55.0948Z" fill="#F2CB7D"/>
<path d="M28.4848 65.0954C28.3272 64.4647 27.1708 63.9916 26.435 64.307C25.3838 64.7275 24.9108 65.0954 25.2787 66.3042C25.3838 66.7247 25.9094 67.6708 26.1722 67.7234C26.5401 67.881 27.4336 67.9336 27.6964 67.6708C28.4848 66.935 28.59 65.5684 28.4848 65.0954Z" fill="#DDA85F"/>
<path d="M27.5916 64.6225C27.4865 64.1494 25.279 64.8327 25.4892 65.6737C25.9097 67.0928 25.9097 67.303 26.3301 67.2505C27.1185 67.0402 27.6441 64.9904 27.5916 64.6225Z" fill="#F2CB7D"/>
</svg>
